<svg width="1600" height="1400" viewBox="0 0 1600 1400" fill="none" xmlns="http://www.w3.org/2000/svg">
  <rect width="1600" height="1400" fill="#EFE6DA"/>
  <circle cx="1290" cy="220" r="240" fill="#D8BB97"/>
  <circle cx="340" cy="1160" r="260" fill="#E6D5C1"/>
  <rect x="130" y="140" width="1340" height="1120" rx="60" fill="#FBF7F1"/>
  <rect x="224" y="298" width="1152" height="610" rx="48" fill="#F3E7D8"/>
  <rect x="316" y="706" width="700" height="86" rx="30" fill="#8D6950"/>
  <rect x="372" y="560" width="600" height="164" rx="54" fill="#C8A98A"/>
  <rect x="300" y="510" width="116" height="256" rx="48" fill="#B28A65"/>
  <rect x="924" y="510" width="116" height="256" rx="48" fill="#B28A65"/>
  <rect x="1088" y="438" width="176" height="360" rx="60" fill="#D2B28F"/>
  <rect x="1098" y="372" width="156" height="98" rx="34" fill="#B98F69"/>
  <rect x="464" y="786" width="44" height="206" rx="18" fill="#6E503C"/>
  <rect x="868" y="786" width="44" height="206" rx="18" fill="#6E503C"/>
  <rect x="300" y="1020" width="1010" height="94" rx="22" fill="#E8D8C6"/>
  <text x="256" y="258" fill="#2A1E18" font-family="Georgia, serif" font-size="88" letter-spacing="-2">Mayorista de muebles & hogar</text>
  <text x="262" y="1164" fill="#6E5C4D" font-family="Arial, sans-serif" font-size="28" letter-spacing="6">PLACEHOLDER VISUAL REEMPLAZABLE</text>
</svg>
